HIERARCHY
ROOT Hips
{
	OFFSET 0.000000 0.000000 0.000000
	CHANNELS 6 Xposition Yposition Zposition Xrotation Yrotation Zrotation
	JOINT LeftUpLeg_virtual
	{
		OFFSET 0.000000 0.000000 0.000000
		CHANNELS 3 Xrotation Yrotation Zrotation
		JOINT LeftUpLeg
		{
			OFFSET 13.026900 -6.336304 -1.092800
			CHANNELS 3 Xrotation Yrotation Zrotation
			JOINT LeftLeg
			{
				OFFSET 0.524474 -46.096886 9.782700
				CHANNELS 3 Xrotation Yrotation Zrotation
				JOINT LeftFoot
				{
					OFFSET -0.524474 -53.427422 -12.948200
					CHANNELS 3 Xrotation Yrotation Zrotation
					JOINT LeftToeBase
					{
						OFFSET 0.192200 -14.009700 16.364100
						CHANNELS 3 Xrotation Yrotation Zrotation
						JOINT LeftToe_End
						{
							OFFSET -1.784700 -0.561700 9.474800
							CHANNELS 3 Xrotation Yrotation Zrotation
							End Site
							{
								OFFSET 0 0 0
							}
						}
					}
				}
			}
		}
	}
	JOINT RightUpLeg_virtual
	{
		OFFSET 0.000000 0.000000 0.000000
		CHANNELS 3 Xrotation Yrotation Zrotation
		JOINT RightUpLeg
		{
			OFFSET -12.883000 -6.336304 -1.092800
			CHANNELS 3 Xrotation Yrotation Zrotation
			JOINT RightLeg
			{
				OFFSET -0.524587 -46.096825 9.782800
				CHANNELS 3 Xrotation Yrotation Zrotation
				JOINT RightFoot
				{
					OFFSET 0.524587 -53.427383 -12.948300
					CHANNELS 3 Xrotation Yrotation Zrotation
					JOINT RightToeBase
					{
						OFFSET -0.192200 -14.009700 16.364100
						CHANNELS 3 Xrotation Yrotation Zrotation
						JOINT RightToe_End
						{
							OFFSET 1.784700 -0.561700 9.474800
							CHANNELS 3 Xrotation Yrotation Zrotation
							End Site
							{
								OFFSET 0 0 0
							}
						}
					}
				}
			}
		}
	}
	JOINT Spine_virtual
	{
		OFFSET 0.000000 0.000000 0.000000
		CHANNELS 3 Xrotation Yrotation Zrotation
		JOINT Spine
		{
			OFFSET 0.072000 7.257294 -0.789700
			CHANNELS 3 Xrotation Yrotation Zrotation
			JOINT Spine1
			{
				OFFSET 0.000000 12.508769 -0.658067
				CHANNELS 3 Xrotation Yrotation Zrotation
				JOINT Spine1_split
				{
					OFFSET 0.000000 12.508769 -0.658067
					CHANNELS 3 Xrotation Yrotation Zrotation
					JOINT Spine2
					{
						OFFSET 0.000000 12.508769 -0.658067
						CHANNELS 3 Xrotation Yrotation Zrotation
						JOINT Neck_virtual
						{
							OFFSET 0.000000 0.000000 0.000000
							CHANNELS 3 Xrotation Yrotation Zrotation
							JOINT Neck
							{
								OFFSET 0.000000 14.033295 7.520400
								CHANNELS 3 Xrotation Yrotation Zrotation
								JOINT Head
								{
									OFFSET 0.000000 8.198502 5.703100
									CHANNELS 3 Xrotation Yrotation Zrotation
									JOINT HeadTop_End
									{
										OFFSET 0.000000 17.760803 13.332701
										CHANNELS 3 Xrotation Yrotation Zrotation
										End Site
										{
											OFFSET 0 0 0
										}
									}
								}
							}
						}
						JOINT LeftShoulder_virtual
						{
							OFFSET 0.000000 0.000000 0.000000
							CHANNELS 3 Xrotation Yrotation Zrotation
							JOINT LeftShoulder
							{
								OFFSET 6.292450 5.785301 -0.669000
								CHANNELS 3 Xrotation Yrotation Zrotation
								JOINT LeftShoulder_split
								{
									OFFSET 6.292450 5.785301 -0.669000
									CHANNELS 3 Xrotation Yrotation Zrotation
									JOINT LeftArm
									{
										OFFSET 13.907140 -6.093903 1.965100
										CHANNELS 3 Xrotation Yrotation Zrotation
										JOINT LeftForeArm
										{
											OFFSET 34.140198 0.000000 0.000000
											CHANNELS 3 Xrotation Yrotation Zrotation
											JOINT LeftHand
											{
												OFFSET 40.960209 0.000000 0.000000
												CHANNELS 3 Xrotation Yrotation Zrotation
												End Site
												{
													OFFSET 0 0 0
												}
											}
										}
									}
								}
							}
						}
						JOINT RightShoulder_virtual
						{
							OFFSET 0.000000 0.000000 0.000000
							CHANNELS 3 Xrotation Yrotation Zrotation
							JOINT RightShoulder
							{
								OFFSET -6.292450 5.785301 -0.669000
								CHANNELS 3 Xrotation Yrotation Zrotation
								JOINT RightShoulder_split
								{
									OFFSET -6.292450 5.785301 -0.669000
									CHANNELS 3 Xrotation Yrotation Zrotation
									JOINT RightArm
									{
										OFFSET -13.907140 -6.093903 1.965100
										CHANNELS 3 Xrotation Yrotation Zrotation
										JOINT RightForeArm
										{
											OFFSET -34.140198 0.000000 0.000000
											CHANNELS 3 Xrotation Yrotation Zrotation
											JOINT RightHand
											{
												OFFSET -40.960209 0.000000 0.000000
												CHANNELS 3 Xrotation Yrotation Zrotation
												End Site
												{
													OFFSET 0 0 0
												}
											}
										}
									}
								}
							}
						}
					}
				}
			}
		}
	}
}
MOTION
Frames: 9
Frame Time: 0.03333333
1.433091 104.584236 1.678497 0.000000 0.000000 0.000000 4.893739 -3.655011 -1.088754 -40.227577 4.978587 19.323908 53.781132 10.365500 -1.108404 13.634150 3.562237 -9.561921 -27.127992 0.733523 -4.343734 0.000000 0.000000 0.000000 4.225635 -3.752313 -0.948134 -29.756194 -9.099417 3.346666 35.802731 -4.929740 -0.715011 -16.347177 -3.954301 -3.977746 5.383492 -0.153775 -0.149654 0.000000 0.000000 0.000000 5.133414 -5.397606 -0.811721 9.546724 3.470906 6.955019 6.549267 1.255450 0.900985 1.048164 -0.539712 0.246901 0.000000 0.000000 0.000000 7.225375 1.176890 0.867848 1.960885 -1.373257 -1.145068 -1.811755 -3.962664 -0.804021 0.000000 0.000000 0.000000 7.206277 1.191765 0.775153 2.426515 -7.906587 -12.995303 -1.115062 -1.875377 -1.334296 -24.142849 0.529264 -67.511652 -1.106019 -30.936532 -1.123692 0.000000 0.000000 0.000000 7.187921 1.057829 0.828186 3.822050 17.374914 6.530188 1.018078 3.445655 -2.259820 -12.061676 2.632640 67.322347 -0.262476 21.913839 0.088610 0.000000 0.000000 0.000000 
1.156272 104.821777 2.177322 0.000000 0.000000 0.000000 4.833127 -3.945386 -1.080097 -41.187089 5.557219 18.920114 52.305981 9.567645 -0.368269 13.981321 2.115539 -10.717982 -26.651301 0.757475 -4.147612 0.000000 0.000000 0.000000 4.429439 -4.104954 -0.847847 -29.349545 -8.478437 3.420574 36.860229 -4.868178 -0.670286 -16.597474 -3.853236 -3.756476 5.456683 -0.164011 -0.230077 0.000000 0.000000 0.000000 5.403939 -5.033896 -0.638293 9.344179 3.567791 7.086209 6.488666 1.300079 0.900122 0.829615 -0.423221 0.291578 0.000000 0.000000 0.000000 7.212636 1.211072 0.856692 2.148109 -1.429184 -1.260441 -1.779093 -4.195133 -0.743591 0.000000 0.000000 0.000000 7.174474 1.234659 0.758680 2.447565 -7.970146 -13.241381 -0.921815 -1.679947 -1.306680 -24.264145 0.551446 -67.925705 -0.982600 -31.385682 -1.046967 0.000000 0.000000 0.000000 7.181514 1.109250 0.824074 3.760858 17.534318 6.815185 0.823522 3.333233 -2.239627 -11.725338 2.144161 66.966392 -0.220262 21.447351 0.146845 0.000000 0.000000 0.000000 
0.849499 105.264687 2.897835 0.000000 0.000000 0.000000 4.670406 -4.275308 -0.492695 -41.151801 7.074158 17.215758 48.812165 8.992617 0.149771 12.198097 0.897510 -10.663053 -25.719610 0.416578 -2.936318 0.000000 0.000000 0.000000 4.492419 -4.504998 -0.252356 -28.821916 -7.160079 3.121131 38.004504 -4.896284 -0.708016 -16.736853 -3.487447 -3.337308 5.195214 -0.152852 -0.312118 0.000000 0.000000 0.000000 5.476001 -4.736392 0.006564 9.228363 3.699585 7.018163 6.355859 1.438537 0.856073 0.630228 -0.200858 0.262466 0.000000 0.000000 0.000000 7.095578 1.330115 0.820373 2.331144 -1.439849 -1.656972 -1.678896 -4.463011 -0.946451 0.000000 0.000000 0.000000 7.027107 1.354499 0.737509 2.429353 -7.947177 -13.506099 -0.801849 -1.239055 -1.262729 -23.839824 0.431957 -68.389236 -0.712851 -31.963035 -0.882610 0.000000 0.000000 0.000000 7.075996 1.235221 0.790950 3.670743 17.482731 7.137061 0.749384 3.273165 -2.320694 -11.170638 0.837294 66.362862 -0.161265 21.344544 0.251038 0.000000 0.000000 0.000000 
0.551156 105.771141 3.937546 0.000000 0.000000 0.000000 4.581394 -4.520703 0.596651 -40.818976 8.824910 14.734798 44.583158 8.803414 0.313736 9.385062 0.213182 -9.789978 -20.956767 0.166236 -2.182997 0.000000 0.000000 0.000000 4.606948 -4.914401 0.764807 -28.260644 -5.460786 2.389614 38.625840 -4.967966 -0.849624 -16.880365 -2.868405 -2.796826 4.940884 -0.097474 -0.349453 0.000000 0.000000 0.000000 5.386443 -4.537386 0.991955 9.242166 3.815984 6.721279 6.170488 1.619823 0.804643 0.443489 -0.096778 0.193529 0.000000 0.000000 0.000000 6.893831 1.495166 0.784964 2.468585 -1.379408 -2.191026 -1.482975 -4.686677 -1.389235 0.000000 0.000000 0.000000 6.802985 1.504935 0.729991 2.388538 -7.797967 -13.724200 -0.757311 -0.587018 -1.187815 -22.889376 0.054192 -68.800762 -0.406054 -32.402452 -0.716389 0.000000 0.000000 0.000000 6.876479 1.390455 0.756128 3.583994 17.174808 7.464133 0.688075 3.195238 -2.307085 -10.482193 -0.994531 65.699460 -0.066016 21.595711 0.359278 0.000000 0.000000 0.000000 
0.292456 106.300446 5.240219 0.000000 0.000000 0.000000 4.618230 -4.547098 1.955650 -41.532352 10.228482 12.384456 40.599126 8.708488 0.087289 7.829414 -0.205629 -9.172470 -12.720175 0.158713 -2.292286 0.000000 0.000000 0.000000 4.903143 -5.254378 2.015095 -27.504771 -3.722021 1.384075 38.445461 -5.137705 -1.065823 -17.030411 -2.100853 -2.294891 5.101263 -0.010253 -0.273186 0.000000 0.000000 0.000000 5.342641 -4.424661 2.093535 9.322801 3.889617 6.207027 5.979100 1.801377 0.772290 0.454115 -0.159358 0.093378 0.000000 0.000000 0.000000 6.631630 1.666127 0.769247 2.517255 -1.285558 -2.694324 -1.173390 -4.808657 -1.970791 0.000000 0.000000 0.000000 6.548915 1.648715 0.741637 2.338664 -7.514185 -13.848378 -0.915543 0.035774 -1.116872 -21.552686 -0.575647 -69.012136 -0.212501 -32.709721 -0.621427 0.000000 0.000000 0.000000 6.604900 1.557079 0.747604 3.523619 16.668177 7.815278 0.668346 3.200223 -2.259089 -9.815959 -3.142434 65.161582 0.073699 22.072035 0.434585 0.000000 0.000000 0.000000 
-0.054247 106.771049 6.843731 0.000000 0.000000 0.000000 4.831924 -4.489031 3.351374 -42.236872 10.888789 10.168830 36.082267 8.577481 -0.135427 7.911649 -0.425463 -8.477015 -5.976867 0.078729 -2.062984 0.000000 0.000000 0.000000 5.276313 -5.295763 3.314968 -26.572663 -2.320360 0.248468 37.523751 -5.441534 -1.270805 -17.069800 -1.402158 -1.772834 5.575629 0.082664 -0.083276 0.000000 0.000000 0.000000 5.390403 -4.190602 3.107820 9.418407 3.918101 5.491321 5.802297 1.941046 0.748297 0.607583 -0.402287 -0.011938 0.000000 0.000000 0.000000 6.353010 1.820973 0.756964 2.449608 -1.192635 -3.007974 -0.712562 -4.831977 -2.560630 0.000000 0.000000 0.000000 6.310904 1.769660 0.752527 2.289969 -7.145922 -13.860316 -1.026021 0.569379 -1.018169 -20.082272 -1.402518 -68.876618 -0.175333 -32.949003 -0.622857 0.000000 0.000000 0.000000 6.282210 1.723259 0.770440 3.486761 16.033510 8.212307 0.733940 3.293594 -2.250489 -9.224760 -5.280643 64.885930 0.258774 22.595475 0.448040 0.000000 0.000000 0.000000 
-0.453243 107.245720 8.738987 0.000000 0.000000 0.000000 5.134402 -4.291354 4.540586 -42.088066 10.594964 7.823144 30.591557 8.651287 -0.197748 8.221815 -0.228754 -7.103644 -2.887577 -0.016146 -1.434897 0.000000 0.000000 0.000000 5.680251 -5.134933 4.455572 -25.441640 -1.531393 -0.818160 36.027697 -5.935136 -1.423466 -17.008382 -0.948420 -1.152879 5.756114 0.143790 0.171475 0.000000 0.000000 0.000000 5.495562 -3.985263 3.889461 9.451005 3.953959 4.674725 5.650990 2.051983 0.722332 0.853855 -0.597234 0.126762 0.000000 0.000000 0.000000 6.088356 1.980877 0.724405 2.195892 -1.129363 -3.076093 -0.111197 -4.867171 -2.954400 0.000000 0.000000 0.000000 6.088564 1.882137 0.736891 2.236892 -6.781643 -13.797843 -0.927514 0.910358 -0.767880 -18.609506 -2.220304 -68.283197 -0.196221 -33.239655 -0.658701 0.000000 0.000000 0.000000 5.925402 1.884939 0.780097 3.454544 15.318735 8.682367 0.742461 3.400526 -2.288236 -8.632084 -7.231307 64.874995 0.463311 23.066889 0.411871 0.000000 0.000000 0.000000 
-0.742726 107.757812 10.536957 0.000000 0.000000 0.000000 5.369292 -3.902138 5.268834 -41.390164 9.697903 5.815432 24.920596 9.074223 -0.220939 7.810742 0.420429 -5.178815 -2.271305 -0.028316 -1.032865 0.000000 0.000000 0.000000 5.951936 -4.959986 5.202776 -23.898890 -1.424056 -1.579218 34.250356 -6.543442 -1.546762 -17.080990 -0.681489 -0.487352 5.417904 0.145980 0.397602 0.000000 0.000000 0.000000 5.672426 -3.966865 4.290963 9.344172 4.061889 3.906275 5.541431 2.175566 0.662095 0.957623 -0.675712 0.334933 0.000000 0.000000 0.000000 5.844736 2.163566 0.628680 1.742040 -1.137987 -2.941423 0.607588 -5.032763 -2.976641 0.000000 0.000000 0.000000 5.872770 2.005969 0.665604 2.171594 -6.481199 -13.681761 -0.763702 1.024573 -0.427209 -17.144835 -2.899586 -67.162275 -0.164838 -33.595433 -0.644827 0.000000 0.000000 0.000000 5.566808 2.058771 0.735066 3.388247 14.554788 9.271878 0.767339 3.425490 -2.418380 -7.966731 -8.867452 65.011994 0.643121 23.640451 0.348245 0.000000 0.000000 0.000000 
-0.849446 108.249207 12.304974 0.000000 0.000000 0.000000 5.504327 -3.492997 5.421051 -40.654000 8.387981 4.560779 20.502500 9.503372 -0.320605 7.557294 1.222190 -3.753632 -1.364696 0.049098 -1.213502 0.000000 0.000000 0.000000 6.081430 -4.852627 5.458966 -21.827502 -1.833261 -2.045633 32.356935 -7.110696 -1.628410 -17.452930 -0.483936 0.150642 5.075102 0.119655 0.488912 0.000000 0.000000 0.000000 5.789606 -4.072568 4.329894 9.099466 4.253025 3.242777 5.478910 2.325014 0.557276 0.850094 -0.778547 0.531107 0.000000 0.000000 0.000000 5.642967 2.369717 0.446430 1.166277 -1.152838 -2.711231 1.446825 -5.454793 -2.562535 0.000000 0.000000 0.000000 5.661835 2.153942 0.521200 2.079594 -6.278627 -13.521387 -0.576030 1.093462 -0.196471 -15.774954 -3.471073 -65.525584 -0.010914 -33.750239 -0.537363 0.000000 0.000000 0.000000 5.260757 2.230660 0.621126 3.278783 13.661732 9.934758 0.734732 3.247057 -2.686432 -7.085969 -9.951940 65.164356 0.785752 24.533775 0.270518 0.000000 0.000000 0.000000 
